<mxfile host="app.diagrams.net" modified="2023-03-01T15:37:17.784Z" agent="5.0 (Macintosh; Intel Mac OS X 10_15_7) AppleWebKit/537.36 (KHTML, like Gecko) Chrome/110.0.0.0 Safari/537.36 Edg/110.0.1587.50" etag="z6hH0r5LhMI7KfOBktly" version="20.8.23" type="github" pages="2">
  <diagram name="And-Gate" id="u10YveOSF3FBLlsxwQq4">
    <mxGraphModel dx="1434" dy="766" grid="1" gridSize="10" guides="1" tooltips="1" connect="1" arrows="1" fold="1" page="1" pageScale="1" pageWidth="827" pageHeight="1169" math="0" shadow="0">
      <root>
        <mxCell id="0" />
        <mxCell id="1" parent="0" />
        <mxCell id="NyGEZXsJiVMz1paDzBxX-51" value="" style="edgeStyle=none;curved=1;rounded=0;orthogonalLoop=1;jettySize=auto;html=1;fontSize=12;startSize=8;endSize=8;" parent="1" source="NyGEZXsJiVMz1paDzBxX-1" target="NyGEZXsJiVMz1paDzBxX-50" edge="1">
          <mxGeometry relative="1" as="geometry" />
        </mxCell>
        <mxCell id="NyGEZXsJiVMz1paDzBxX-1" value="" style="rounded=1;whiteSpace=wrap;html=1;fontSize=16;arcSize=4;dashed=1;strokeColor=#0ABEFF;strokeWidth=2;" parent="1" vertex="1">
          <mxGeometry x="120" y="80" width="380" height="210" as="geometry" />
        </mxCell>
        <mxCell id="NyGEZXsJiVMz1paDzBxX-2" value="AND" style="verticalLabelPosition=bottom;shadow=0;dashed=0;align=center;html=1;verticalAlign=top;shape=mxgraph.electrical.logic_gates.logic_gate;operation=and;fontSize=16;" parent="1" vertex="1">
          <mxGeometry x="260" y="155" width="100" height="60" as="geometry" />
        </mxCell>
        <mxCell id="NyGEZXsJiVMz1paDzBxX-3" value="" style="endArrow=none;html=1;rounded=0;fontSize=12;startSize=8;endSize=8;curved=1;entryX=0;entryY=0.25;entryDx=0;entryDy=0;entryPerimeter=0;" parent="1" target="NyGEZXsJiVMz1paDzBxX-2" edge="1">
          <mxGeometry width="50" height="50" relative="1" as="geometry">
            <mxPoint x="80" y="170" as="sourcePoint" />
            <mxPoint x="380" y="200" as="targetPoint" />
          </mxGeometry>
        </mxCell>
        <mxCell id="NyGEZXsJiVMz1paDzBxX-7" value="A input" style="edgeLabel;html=1;align=center;verticalAlign=middle;resizable=0;points=[];fontSize=16;" parent="NyGEZXsJiVMz1paDzBxX-3" vertex="1" connectable="0">
          <mxGeometry x="-0.009" y="2" relative="1" as="geometry">
            <mxPoint as="offset" />
          </mxGeometry>
        </mxCell>
        <mxCell id="NyGEZXsJiVMz1paDzBxX-4" value="" style="endArrow=none;html=1;rounded=0;fontSize=12;startSize=8;endSize=8;curved=1;entryX=0;entryY=0.25;entryDx=0;entryDy=0;entryPerimeter=0;" parent="1" edge="1">
          <mxGeometry width="50" height="50" relative="1" as="geometry">
            <mxPoint x="80" y="200" as="sourcePoint" />
            <mxPoint x="260" y="200" as="targetPoint" />
          </mxGeometry>
        </mxCell>
        <mxCell id="NyGEZXsJiVMz1paDzBxX-6" value="B Input" style="edgeLabel;html=1;align=center;verticalAlign=middle;resizable=0;points=[];fontSize=16;" parent="NyGEZXsJiVMz1paDzBxX-4" vertex="1" connectable="0">
          <mxGeometry x="-0.0663" y="-1" relative="1" as="geometry">
            <mxPoint as="offset" />
          </mxGeometry>
        </mxCell>
        <mxCell id="NyGEZXsJiVMz1paDzBxX-8" value="" style="endArrow=classic;html=1;rounded=0;fontSize=12;startSize=8;endSize=8;curved=1;exitX=1;exitY=0.5;exitDx=0;exitDy=0;exitPerimeter=0;" parent="1" source="NyGEZXsJiVMz1paDzBxX-2" edge="1">
          <mxGeometry width="50" height="50" relative="1" as="geometry">
            <mxPoint x="330" y="250" as="sourcePoint" />
            <mxPoint x="540" y="185" as="targetPoint" />
          </mxGeometry>
        </mxCell>
        <mxCell id="NyGEZXsJiVMz1paDzBxX-9" value="Out" style="edgeLabel;html=1;align=center;verticalAlign=middle;resizable=0;points=[];fontSize=16;" parent="NyGEZXsJiVMz1paDzBxX-8" vertex="1" connectable="0">
          <mxGeometry x="-0.0735" relative="1" as="geometry">
            <mxPoint as="offset" />
          </mxGeometry>
        </mxCell>
        <mxCell id="NyGEZXsJiVMz1paDzBxX-10" value="&lt;h1&gt;AND Gate&lt;/h1&gt;&lt;p&gt;&lt;br&gt;&lt;/p&gt;" style="text;html=1;strokeColor=default;fillColor=none;spacing=5;spacingTop=-20;whiteSpace=wrap;overflow=hidden;rounded=1;fontSize=16;arcSize=1;" parent="1" vertex="1">
          <mxGeometry x="540" y="80" width="460" height="290" as="geometry" />
        </mxCell>
        <mxCell id="NyGEZXsJiVMz1paDzBxX-24" value="" style="shape=table;startSize=0;container=1;collapsible=0;childLayout=tableLayout;fontSize=16;rounded=1;strokeColor=default;strokeWidth=2;" parent="1" vertex="1">
          <mxGeometry x="550" y="160" width="180" height="200" as="geometry" />
        </mxCell>
        <mxCell id="NyGEZXsJiVMz1paDzBxX-25" value="" style="shape=tableRow;horizontal=0;startSize=0;swimlaneHead=0;swimlaneBody=0;strokeColor=inherit;top=0;left=0;bottom=0;right=0;collapsible=0;dropTarget=0;fillColor=none;points=[[0,0.5],[1,0.5]];portConstraint=eastwest;fontSize=16;rounded=1;strokeWidth=2;" parent="NyGEZXsJiVMz1paDzBxX-24" vertex="1">
          <mxGeometry width="180" height="40" as="geometry" />
        </mxCell>
        <mxCell id="NyGEZXsJiVMz1paDzBxX-26" value="A" style="shape=partialRectangle;html=1;whiteSpace=wrap;connectable=0;strokeColor=inherit;overflow=hidden;fillColor=none;top=0;left=0;bottom=0;right=0;pointerEvents=1;fontSize=16;rounded=1;strokeWidth=2;" parent="NyGEZXsJiVMz1paDzBxX-25" vertex="1">
          <mxGeometry width="60" height="40" as="geometry">
            <mxRectangle width="60" height="40" as="alternateBounds" />
          </mxGeometry>
        </mxCell>
        <mxCell id="NyGEZXsJiVMz1paDzBxX-27" value="B" style="shape=partialRectangle;html=1;whiteSpace=wrap;connectable=0;strokeColor=inherit;overflow=hidden;fillColor=none;top=0;left=0;bottom=0;right=0;pointerEvents=1;fontSize=16;rounded=1;strokeWidth=2;" parent="NyGEZXsJiVMz1paDzBxX-25" vertex="1">
          <mxGeometry x="60" width="60" height="40" as="geometry">
            <mxRectangle width="60" height="40" as="alternateBounds" />
          </mxGeometry>
        </mxCell>
        <mxCell id="NyGEZXsJiVMz1paDzBxX-28" value="OUT" style="shape=partialRectangle;html=1;whiteSpace=wrap;connectable=0;strokeColor=inherit;overflow=hidden;fillColor=none;top=0;left=0;bottom=0;right=0;pointerEvents=1;fontSize=16;rounded=1;strokeWidth=2;" parent="NyGEZXsJiVMz1paDzBxX-25" vertex="1">
          <mxGeometry x="120" width="60" height="40" as="geometry">
            <mxRectangle width="60" height="40" as="alternateBounds" />
          </mxGeometry>
        </mxCell>
        <mxCell id="NyGEZXsJiVMz1paDzBxX-29" value="" style="shape=tableRow;horizontal=0;startSize=0;swimlaneHead=0;swimlaneBody=0;strokeColor=inherit;top=0;left=0;bottom=0;right=0;collapsible=0;dropTarget=0;fillColor=none;points=[[0,0.5],[1,0.5]];portConstraint=eastwest;fontSize=16;rounded=1;strokeWidth=2;" parent="NyGEZXsJiVMz1paDzBxX-24" vertex="1">
          <mxGeometry y="40" width="180" height="40" as="geometry" />
        </mxCell>
        <mxCell id="NyGEZXsJiVMz1paDzBxX-30" value="0" style="shape=partialRectangle;html=1;whiteSpace=wrap;connectable=0;strokeColor=inherit;overflow=hidden;fillColor=none;top=0;left=0;bottom=0;right=0;pointerEvents=1;fontSize=16;rounded=1;strokeWidth=2;" parent="NyGEZXsJiVMz1paDzBxX-29" vertex="1">
          <mxGeometry width="60" height="40" as="geometry">
            <mxRectangle width="60" height="40" as="alternateBounds" />
          </mxGeometry>
        </mxCell>
        <mxCell id="NyGEZXsJiVMz1paDzBxX-31" value="0" style="shape=partialRectangle;html=1;whiteSpace=wrap;connectable=0;strokeColor=inherit;overflow=hidden;fillColor=none;top=0;left=0;bottom=0;right=0;pointerEvents=1;fontSize=16;rounded=1;strokeWidth=2;" parent="NyGEZXsJiVMz1paDzBxX-29" vertex="1">
          <mxGeometry x="60" width="60" height="40" as="geometry">
            <mxRectangle width="60" height="40" as="alternateBounds" />
          </mxGeometry>
        </mxCell>
        <mxCell id="NyGEZXsJiVMz1paDzBxX-32" value="0" style="shape=partialRectangle;html=1;whiteSpace=wrap;connectable=0;strokeColor=inherit;overflow=hidden;fillColor=none;top=0;left=0;bottom=0;right=0;pointerEvents=1;fontSize=16;rounded=1;strokeWidth=2;" parent="NyGEZXsJiVMz1paDzBxX-29" vertex="1">
          <mxGeometry x="120" width="60" height="40" as="geometry">
            <mxRectangle width="60" height="40" as="alternateBounds" />
          </mxGeometry>
        </mxCell>
        <mxCell id="NyGEZXsJiVMz1paDzBxX-33" value="" style="shape=tableRow;horizontal=0;startSize=0;swimlaneHead=0;swimlaneBody=0;strokeColor=inherit;top=0;left=0;bottom=0;right=0;collapsible=0;dropTarget=0;fillColor=none;points=[[0,0.5],[1,0.5]];portConstraint=eastwest;fontSize=16;rounded=1;strokeWidth=2;" parent="NyGEZXsJiVMz1paDzBxX-24" vertex="1">
          <mxGeometry y="80" width="180" height="40" as="geometry" />
        </mxCell>
        <mxCell id="NyGEZXsJiVMz1paDzBxX-34" value="1" style="shape=partialRectangle;html=1;whiteSpace=wrap;connectable=0;strokeColor=inherit;overflow=hidden;fillColor=none;top=0;left=0;bottom=0;right=0;pointerEvents=1;fontSize=16;rounded=1;strokeWidth=2;" parent="NyGEZXsJiVMz1paDzBxX-33" vertex="1">
          <mxGeometry width="60" height="40" as="geometry">
            <mxRectangle width="60" height="40" as="alternateBounds" />
          </mxGeometry>
        </mxCell>
        <mxCell id="NyGEZXsJiVMz1paDzBxX-35" value="0" style="shape=partialRectangle;html=1;whiteSpace=wrap;connectable=0;strokeColor=inherit;overflow=hidden;fillColor=none;top=0;left=0;bottom=0;right=0;pointerEvents=1;fontSize=16;rounded=1;strokeWidth=2;" parent="NyGEZXsJiVMz1paDzBxX-33" vertex="1">
          <mxGeometry x="60" width="60" height="40" as="geometry">
            <mxRectangle width="60" height="40" as="alternateBounds" />
          </mxGeometry>
        </mxCell>
        <mxCell id="NyGEZXsJiVMz1paDzBxX-36" value="0" style="shape=partialRectangle;html=1;whiteSpace=wrap;connectable=0;strokeColor=inherit;overflow=hidden;fillColor=none;top=0;left=0;bottom=0;right=0;pointerEvents=1;fontSize=16;rounded=1;strokeWidth=2;" parent="NyGEZXsJiVMz1paDzBxX-33" vertex="1">
          <mxGeometry x="120" width="60" height="40" as="geometry">
            <mxRectangle width="60" height="40" as="alternateBounds" />
          </mxGeometry>
        </mxCell>
        <mxCell id="NyGEZXsJiVMz1paDzBxX-37" style="shape=tableRow;horizontal=0;startSize=0;swimlaneHead=0;swimlaneBody=0;strokeColor=inherit;top=0;left=0;bottom=0;right=0;collapsible=0;dropTarget=0;fillColor=none;points=[[0,0.5],[1,0.5]];portConstraint=eastwest;fontSize=16;rounded=1;strokeWidth=2;" parent="NyGEZXsJiVMz1paDzBxX-24" vertex="1">
          <mxGeometry y="120" width="180" height="40" as="geometry" />
        </mxCell>
        <mxCell id="NyGEZXsJiVMz1paDzBxX-38" value="0" style="shape=partialRectangle;html=1;whiteSpace=wrap;connectable=0;strokeColor=inherit;overflow=hidden;fillColor=none;top=0;left=0;bottom=0;right=0;pointerEvents=1;fontSize=16;rounded=1;strokeWidth=2;" parent="NyGEZXsJiVMz1paDzBxX-37" vertex="1">
          <mxGeometry width="60" height="40" as="geometry">
            <mxRectangle width="60" height="40" as="alternateBounds" />
          </mxGeometry>
        </mxCell>
        <mxCell id="NyGEZXsJiVMz1paDzBxX-39" value="1" style="shape=partialRectangle;html=1;whiteSpace=wrap;connectable=0;strokeColor=inherit;overflow=hidden;fillColor=none;top=0;left=0;bottom=0;right=0;pointerEvents=1;fontSize=16;rounded=1;strokeWidth=2;" parent="NyGEZXsJiVMz1paDzBxX-37" vertex="1">
          <mxGeometry x="60" width="60" height="40" as="geometry">
            <mxRectangle width="60" height="40" as="alternateBounds" />
          </mxGeometry>
        </mxCell>
        <mxCell id="NyGEZXsJiVMz1paDzBxX-40" value="0" style="shape=partialRectangle;html=1;whiteSpace=wrap;connectable=0;strokeColor=inherit;overflow=hidden;fillColor=none;top=0;left=0;bottom=0;right=0;pointerEvents=1;fontSize=16;rounded=1;strokeWidth=2;" parent="NyGEZXsJiVMz1paDzBxX-37" vertex="1">
          <mxGeometry x="120" width="60" height="40" as="geometry">
            <mxRectangle width="60" height="40" as="alternateBounds" />
          </mxGeometry>
        </mxCell>
        <mxCell id="NyGEZXsJiVMz1paDzBxX-41" style="shape=tableRow;horizontal=0;startSize=0;swimlaneHead=0;swimlaneBody=0;strokeColor=inherit;top=0;left=0;bottom=0;right=0;collapsible=0;dropTarget=0;fillColor=none;points=[[0,0.5],[1,0.5]];portConstraint=eastwest;fontSize=16;rounded=1;strokeWidth=2;" parent="NyGEZXsJiVMz1paDzBxX-24" vertex="1">
          <mxGeometry y="160" width="180" height="40" as="geometry" />
        </mxCell>
        <mxCell id="NyGEZXsJiVMz1paDzBxX-42" value="1" style="shape=partialRectangle;html=1;whiteSpace=wrap;connectable=0;strokeColor=inherit;overflow=hidden;fillColor=none;top=0;left=0;bottom=0;right=0;pointerEvents=1;fontSize=16;rounded=1;strokeWidth=2;" parent="NyGEZXsJiVMz1paDzBxX-41" vertex="1">
          <mxGeometry width="60" height="40" as="geometry">
            <mxRectangle width="60" height="40" as="alternateBounds" />
          </mxGeometry>
        </mxCell>
        <mxCell id="NyGEZXsJiVMz1paDzBxX-43" value="1" style="shape=partialRectangle;html=1;whiteSpace=wrap;connectable=0;strokeColor=inherit;overflow=hidden;fillColor=none;top=0;left=0;bottom=0;right=0;pointerEvents=1;fontSize=16;rounded=1;strokeWidth=2;" parent="NyGEZXsJiVMz1paDzBxX-41" vertex="1">
          <mxGeometry x="60" width="60" height="40" as="geometry">
            <mxRectangle width="60" height="40" as="alternateBounds" />
          </mxGeometry>
        </mxCell>
        <mxCell id="NyGEZXsJiVMz1paDzBxX-44" value="1" style="shape=partialRectangle;html=1;whiteSpace=wrap;connectable=0;strokeColor=inherit;overflow=hidden;fillColor=none;top=0;left=0;bottom=0;right=0;pointerEvents=1;fontSize=16;rounded=1;strokeWidth=2;" parent="NyGEZXsJiVMz1paDzBxX-41" vertex="1">
          <mxGeometry x="120" width="60" height="40" as="geometry">
            <mxRectangle width="60" height="40" as="alternateBounds" />
          </mxGeometry>
        </mxCell>
        <mxCell id="NyGEZXsJiVMz1paDzBxX-48" value="if a=b=1 then out=1 else out=0" style="rounded=0;whiteSpace=wrap;html=1;strokeColor=default;strokeWidth=2;fontSize=16;" parent="1" vertex="1">
          <mxGeometry x="740" y="160" width="250" height="200" as="geometry" />
        </mxCell>
        <mxCell id="NyGEZXsJiVMz1paDzBxX-49" value="Functional Requirement" style="text;html=1;strokeColor=none;fillColor=none;align=left;verticalAlign=middle;whiteSpace=wrap;rounded=0;fontSize=16;" parent="1" vertex="1">
          <mxGeometry x="750" y="170" width="60" height="30" as="geometry" />
        </mxCell>
        <mxCell id="NyGEZXsJiVMz1paDzBxX-50" value="" style="whiteSpace=wrap;html=1;fontSize=16;strokeColor=#0ABEFF;rounded=1;arcSize=4;dashed=1;strokeWidth=2;" parent="1" vertex="1">
          <mxGeometry x="120" y="470" width="380" height="230" as="geometry" />
        </mxCell>
        <mxCell id="NyGEZXsJiVMz1paDzBxX-52" value="" style="edgeStyle=segmentEdgeStyle;endArrow=none;html=1;curved=0;rounded=0;endSize=8;startSize=8;fontSize=12;exitX=0.9;exitY=0.5;exitDx=0;exitDy=0;exitPerimeter=0;endFill=0;entryX=0;entryY=0.25;entryDx=0;entryDy=0;entryPerimeter=0;strokeWidth=2;" parent="1" source="NyGEZXsJiVMz1paDzBxX-53" target="NyGEZXsJiVMz1paDzBxX-59" edge="1">
          <mxGeometry width="50" height="50" relative="1" as="geometry">
            <mxPoint x="80" y="549.68" as="sourcePoint" />
            <mxPoint x="80" y="500" as="targetPoint" />
            <Array as="points">
              <mxPoint x="150" y="545" />
              <mxPoint x="150" y="570" />
            </Array>
          </mxGeometry>
        </mxCell>
        <mxCell id="NyGEZXsJiVMz1paDzBxX-53" value="A" style="verticalLabelPosition=bottom;shadow=0;dashed=0;align=center;html=1;verticalAlign=top;shape=mxgraph.electrical.logic_gates.inverting_contact;rounded=1;strokeColor=default;strokeWidth=2;fontSize=16;" parent="1" vertex="1">
          <mxGeometry x="110" y="535" width="20" height="20" as="geometry" />
        </mxCell>
        <mxCell id="NyGEZXsJiVMz1paDzBxX-58" value="" style="edgeStyle=segmentEdgeStyle;endArrow=none;html=1;curved=0;rounded=0;endSize=8;startSize=8;fontSize=12;entryX=0;entryY=0.75;entryDx=0;entryDy=0;entryPerimeter=0;endFill=0;strokeWidth=2;startArrow=none;exitX=0.9;exitY=0.5;exitDx=0;exitDy=0;exitPerimeter=0;" parent="1" source="NyGEZXsJiVMz1paDzBxX-54" target="NyGEZXsJiVMz1paDzBxX-59" edge="1">
          <mxGeometry width="50" height="50" relative="1" as="geometry">
            <mxPoint x="50" y="650" as="sourcePoint" />
            <mxPoint x="100" y="600" as="targetPoint" />
            <Array as="points">
              <mxPoint x="150" y="620" />
              <mxPoint x="150" y="600" />
            </Array>
          </mxGeometry>
        </mxCell>
        <mxCell id="NyGEZXsJiVMz1paDzBxX-63" style="edgeStyle=orthogonalEdgeStyle;rounded=0;orthogonalLoop=1;jettySize=auto;html=1;exitX=1;exitY=0.5;exitDx=0;exitDy=0;exitPerimeter=0;strokeWidth=2;fontSize=12;endArrow=none;endFill=0;startSize=8;endSize=8;entryX=0;entryY=0.25;entryDx=0;entryDy=0;entryPerimeter=0;" parent="1" source="NyGEZXsJiVMz1paDzBxX-59" target="NyGEZXsJiVMz1paDzBxX-66" edge="1">
          <mxGeometry relative="1" as="geometry">
            <mxPoint x="280" y="585" as="targetPoint" />
          </mxGeometry>
        </mxCell>
        <mxCell id="NyGEZXsJiVMz1paDzBxX-59" value="NAND" style="verticalLabelPosition=bottom;shadow=0;dashed=0;align=center;html=1;verticalAlign=top;shape=mxgraph.electrical.logic_gates.logic_gate;operation=and;negating=1;negSize=0.15;rounded=1;strokeColor=default;strokeWidth=2;fontSize=16;" parent="1" vertex="1">
          <mxGeometry x="170" y="555" width="100" height="60" as="geometry" />
        </mxCell>
        <mxCell id="NyGEZXsJiVMz1paDzBxX-54" value="B" style="verticalLabelPosition=bottom;shadow=0;dashed=0;align=center;html=1;verticalAlign=top;shape=mxgraph.electrical.logic_gates.inverting_contact;rounded=1;strokeColor=default;strokeWidth=2;fontSize=16;" parent="1" vertex="1">
          <mxGeometry x="110" y="610" width="20" height="20" as="geometry" />
        </mxCell>
        <mxCell id="NyGEZXsJiVMz1paDzBxX-64" style="edgeStyle=orthogonalEdgeStyle;rounded=0;orthogonalLoop=1;jettySize=auto;html=1;exitX=1;exitY=0.5;exitDx=0;exitDy=0;exitPerimeter=0;strokeWidth=2;fontSize=12;endArrow=none;endFill=0;startSize=8;endSize=8;entryX=0.5;entryY=1;entryDx=0;entryDy=0;" parent="1" target="NyGEZXsJiVMz1paDzBxX-10" edge="1">
          <mxGeometry relative="1" as="geometry">
            <mxPoint x="530" y="585.4000000000001" as="targetPoint" />
            <mxPoint x="413.5" y="585" as="sourcePoint" />
          </mxGeometry>
        </mxCell>
        <mxCell id="NyGEZXsJiVMz1paDzBxX-65" value="Out" style="edgeLabel;html=1;align=center;verticalAlign=middle;resizable=0;points=[];fontSize=16;" parent="NyGEZXsJiVMz1paDzBxX-64" vertex="1" connectable="0">
          <mxGeometry x="-0.1982" y="-1" relative="1" as="geometry">
            <mxPoint as="offset" />
          </mxGeometry>
        </mxCell>
        <mxCell id="NyGEZXsJiVMz1paDzBxX-66" value="NAND" style="verticalLabelPosition=bottom;shadow=0;dashed=0;align=center;html=1;verticalAlign=top;shape=mxgraph.electrical.logic_gates.logic_gate;operation=and;negating=1;negSize=0.15;rounded=1;strokeColor=default;strokeWidth=2;fontSize=16;" parent="1" vertex="1">
          <mxGeometry x="314" y="555" width="100" height="60" as="geometry" />
        </mxCell>
        <mxCell id="NyGEZXsJiVMz1paDzBxX-67" style="edgeStyle=orthogonalEdgeStyle;rounded=0;orthogonalLoop=1;jettySize=auto;html=1;strokeWidth=2;fontSize=12;endArrow=none;endFill=0;startSize=8;endSize=8;entryX=0;entryY=0.75;entryDx=0;entryDy=0;entryPerimeter=0;" parent="1" target="NyGEZXsJiVMz1paDzBxX-66" edge="1">
          <mxGeometry relative="1" as="geometry">
            <mxPoint x="270" y="585" as="sourcePoint" />
            <mxPoint x="324" y="580" as="targetPoint" />
          </mxGeometry>
        </mxCell>
        <mxCell id="NyGEZXsJiVMz1paDzBxX-68" value="NOT(NOT(A AND B))" style="text;html=1;strokeColor=none;fillColor=none;align=center;verticalAlign=middle;whiteSpace=wrap;rounded=0;fontSize=16;" parent="1" vertex="1">
          <mxGeometry x="170" y="660" width="200" height="30" as="geometry" />
        </mxCell>
      </root>
    </mxGraphModel>
  </diagram>
  <diagram id="ggTpaYh7sdBdm7eEk3-f" name="DMux">
    <mxGraphModel dx="700" dy="374" grid="1" gridSize="10" guides="1" tooltips="1" connect="1" arrows="1" fold="1" page="1" pageScale="1" pageWidth="827" pageHeight="1169" math="0" shadow="0">
      <root>
        <mxCell id="0" />
        <mxCell id="1" parent="0" />
        <mxCell id="fPSkez0-Y5Z7DCAbJ3Fu-7" value="" style="edgeStyle=orthogonalEdgeStyle;rounded=0;orthogonalLoop=1;jettySize=auto;html=1;" edge="1" parent="1" source="fPSkez0-Y5Z7DCAbJ3Fu-2" target="fPSkez0-Y5Z7DCAbJ3Fu-6">
          <mxGeometry relative="1" as="geometry" />
        </mxCell>
        <mxCell id="fPSkez0-Y5Z7DCAbJ3Fu-29" value="" style="edgeStyle=orthogonalEdgeStyle;rounded=0;orthogonalLoop=1;jettySize=auto;html=1;" edge="1" parent="1" source="fPSkez0-Y5Z7DCAbJ3Fu-2" target="fPSkez0-Y5Z7DCAbJ3Fu-28">
          <mxGeometry relative="1" as="geometry" />
        </mxCell>
        <mxCell id="fPSkez0-Y5Z7DCAbJ3Fu-2" value="" style="rounded=1;whiteSpace=wrap;html=1;arcSize=4;strokeWidth=2;dashed=1;strokeColor=#0ABEFF;" vertex="1" parent="1">
          <mxGeometry x="210" y="160" width="320" height="190" as="geometry" />
        </mxCell>
        <mxCell id="fPSkez0-Y5Z7DCAbJ3Fu-3" value="Demux" style="shadow=0;dashed=0;align=center;html=1;strokeWidth=1;shape=mxgraph.electrical.abstract.mux2;operation=demux;strokeColor=#000000;" vertex="1" parent="1">
          <mxGeometry x="360" y="195" width="80" height="120" as="geometry" />
        </mxCell>
        <mxCell id="fPSkez0-Y5Z7DCAbJ3Fu-4" value="" style="endArrow=none;html=1;rounded=0;entryX=0;entryY=0.4583333333333333;entryDx=0;entryDy=0;entryPerimeter=0;exitX=0.281;exitY=0.474;exitDx=0;exitDy=0;exitPerimeter=0;" edge="1" parent="1" source="fPSkez0-Y5Z7DCAbJ3Fu-2" target="fPSkez0-Y5Z7DCAbJ3Fu-3">
          <mxGeometry width="50" height="50" relative="1" as="geometry">
            <mxPoint x="350" y="310" as="sourcePoint" />
            <mxPoint x="400" y="260" as="targetPoint" />
          </mxGeometry>
        </mxCell>
        <mxCell id="fPSkez0-Y5Z7DCAbJ3Fu-5" value="In" style="edgeLabel;html=1;align=center;verticalAlign=middle;resizable=0;points=[];" vertex="1" connectable="0" parent="fPSkez0-Y5Z7DCAbJ3Fu-4">
          <mxGeometry x="-0.023" y="2" relative="1" as="geometry">
            <mxPoint as="offset" />
          </mxGeometry>
        </mxCell>
        <mxCell id="fPSkez0-Y5Z7DCAbJ3Fu-6" value="" style="rounded=1;whiteSpace=wrap;html=1;arcSize=4;strokeWidth=2;strokeColor=#000000;" vertex="1" parent="1">
          <mxGeometry x="610" y="160" width="320" height="190" as="geometry" />
        </mxCell>
        <mxCell id="fPSkez0-Y5Z7DCAbJ3Fu-8" value="DMux Implementation" style="text;html=1;strokeColor=none;fillColor=none;align=left;verticalAlign=middle;whiteSpace=wrap;rounded=0;" vertex="1" parent="1">
          <mxGeometry x="620" y="165" width="60" height="30" as="geometry" />
        </mxCell>
        <mxCell id="fPSkez0-Y5Z7DCAbJ3Fu-9" value="" style="shape=table;startSize=0;container=1;collapsible=0;childLayout=tableLayout;fontSize=16;strokeColor=#000000;strokeWidth=2;" vertex="1" parent="1">
          <mxGeometry x="620" y="220" width="240" height="120" as="geometry" />
        </mxCell>
        <mxCell id="fPSkez0-Y5Z7DCAbJ3Fu-10" value="" style="shape=tableRow;horizontal=0;startSize=0;swimlaneHead=0;swimlaneBody=0;strokeColor=inherit;top=0;left=0;bottom=0;right=0;collapsible=0;dropTarget=0;fillColor=none;points=[[0,0.5],[1,0.5]];portConstraint=eastwest;fontSize=16;strokeWidth=2;" vertex="1" parent="fPSkez0-Y5Z7DCAbJ3Fu-9">
          <mxGeometry width="240" height="40" as="geometry" />
        </mxCell>
        <mxCell id="fPSkez0-Y5Z7DCAbJ3Fu-11" value="in" style="shape=partialRectangle;html=1;whiteSpace=wrap;connectable=0;strokeColor=inherit;overflow=hidden;fillColor=none;top=0;left=0;bottom=0;right=0;pointerEvents=1;fontSize=16;strokeWidth=2;" vertex="1" parent="fPSkez0-Y5Z7DCAbJ3Fu-10">
          <mxGeometry width="60" height="40" as="geometry">
            <mxRectangle width="60" height="40" as="alternateBounds" />
          </mxGeometry>
        </mxCell>
        <mxCell id="fPSkez0-Y5Z7DCAbJ3Fu-12" value="sel" style="shape=partialRectangle;html=1;whiteSpace=wrap;connectable=0;strokeColor=inherit;overflow=hidden;fillColor=none;top=0;left=0;bottom=0;right=0;pointerEvents=1;fontSize=16;strokeWidth=2;" vertex="1" parent="fPSkez0-Y5Z7DCAbJ3Fu-10">
          <mxGeometry x="60" width="60" height="40" as="geometry">
            <mxRectangle width="60" height="40" as="alternateBounds" />
          </mxGeometry>
        </mxCell>
        <mxCell id="fPSkez0-Y5Z7DCAbJ3Fu-13" value="out A" style="shape=partialRectangle;html=1;whiteSpace=wrap;connectable=0;strokeColor=inherit;overflow=hidden;fillColor=none;top=0;left=0;bottom=0;right=0;pointerEvents=1;fontSize=16;strokeWidth=2;" vertex="1" parent="fPSkez0-Y5Z7DCAbJ3Fu-10">
          <mxGeometry x="120" width="60" height="40" as="geometry">
            <mxRectangle width="60" height="40" as="alternateBounds" />
          </mxGeometry>
        </mxCell>
        <mxCell id="fPSkez0-Y5Z7DCAbJ3Fu-22" value="out B" style="shape=partialRectangle;html=1;whiteSpace=wrap;connectable=0;strokeColor=inherit;overflow=hidden;fillColor=none;top=0;left=0;bottom=0;right=0;pointerEvents=1;fontSize=16;strokeWidth=2;" vertex="1" parent="fPSkez0-Y5Z7DCAbJ3Fu-10">
          <mxGeometry x="180" width="60" height="40" as="geometry">
            <mxRectangle width="60" height="40" as="alternateBounds" />
          </mxGeometry>
        </mxCell>
        <mxCell id="fPSkez0-Y5Z7DCAbJ3Fu-14" value="" style="shape=tableRow;horizontal=0;startSize=0;swimlaneHead=0;swimlaneBody=0;strokeColor=inherit;top=0;left=0;bottom=0;right=0;collapsible=0;dropTarget=0;fillColor=none;points=[[0,0.5],[1,0.5]];portConstraint=eastwest;fontSize=16;strokeWidth=2;" vertex="1" parent="fPSkez0-Y5Z7DCAbJ3Fu-9">
          <mxGeometry y="40" width="240" height="40" as="geometry" />
        </mxCell>
        <mxCell id="fPSkez0-Y5Z7DCAbJ3Fu-15" value="1" style="shape=partialRectangle;html=1;whiteSpace=wrap;connectable=0;strokeColor=inherit;overflow=hidden;fillColor=none;top=0;left=0;bottom=0;right=0;pointerEvents=1;fontSize=16;strokeWidth=2;" vertex="1" parent="fPSkez0-Y5Z7DCAbJ3Fu-14">
          <mxGeometry width="60" height="40" as="geometry">
            <mxRectangle width="60" height="40" as="alternateBounds" />
          </mxGeometry>
        </mxCell>
        <mxCell id="fPSkez0-Y5Z7DCAbJ3Fu-16" value="0" style="shape=partialRectangle;html=1;whiteSpace=wrap;connectable=0;strokeColor=inherit;overflow=hidden;fillColor=none;top=0;left=0;bottom=0;right=0;pointerEvents=1;fontSize=16;strokeWidth=2;" vertex="1" parent="fPSkez0-Y5Z7DCAbJ3Fu-14">
          <mxGeometry x="60" width="60" height="40" as="geometry">
            <mxRectangle width="60" height="40" as="alternateBounds" />
          </mxGeometry>
        </mxCell>
        <mxCell id="fPSkez0-Y5Z7DCAbJ3Fu-17" value="1" style="shape=partialRectangle;html=1;whiteSpace=wrap;connectable=0;strokeColor=inherit;overflow=hidden;fillColor=none;top=0;left=0;bottom=0;right=0;pointerEvents=1;fontSize=16;strokeWidth=2;" vertex="1" parent="fPSkez0-Y5Z7DCAbJ3Fu-14">
          <mxGeometry x="120" width="60" height="40" as="geometry">
            <mxRectangle width="60" height="40" as="alternateBounds" />
          </mxGeometry>
        </mxCell>
        <mxCell id="fPSkez0-Y5Z7DCAbJ3Fu-23" value="0" style="shape=partialRectangle;html=1;whiteSpace=wrap;connectable=0;strokeColor=inherit;overflow=hidden;fillColor=none;top=0;left=0;bottom=0;right=0;pointerEvents=1;fontSize=16;strokeWidth=2;" vertex="1" parent="fPSkez0-Y5Z7DCAbJ3Fu-14">
          <mxGeometry x="180" width="60" height="40" as="geometry">
            <mxRectangle width="60" height="40" as="alternateBounds" />
          </mxGeometry>
        </mxCell>
        <mxCell id="fPSkez0-Y5Z7DCAbJ3Fu-18" value="" style="shape=tableRow;horizontal=0;startSize=0;swimlaneHead=0;swimlaneBody=0;strokeColor=inherit;top=0;left=0;bottom=0;right=0;collapsible=0;dropTarget=0;fillColor=none;points=[[0,0.5],[1,0.5]];portConstraint=eastwest;fontSize=16;strokeWidth=2;" vertex="1" parent="fPSkez0-Y5Z7DCAbJ3Fu-9">
          <mxGeometry y="80" width="240" height="40" as="geometry" />
        </mxCell>
        <mxCell id="fPSkez0-Y5Z7DCAbJ3Fu-19" value="1" style="shape=partialRectangle;html=1;whiteSpace=wrap;connectable=0;strokeColor=inherit;overflow=hidden;fillColor=none;top=0;left=0;bottom=0;right=0;pointerEvents=1;fontSize=16;strokeWidth=2;" vertex="1" parent="fPSkez0-Y5Z7DCAbJ3Fu-18">
          <mxGeometry width="60" height="40" as="geometry">
            <mxRectangle width="60" height="40" as="alternateBounds" />
          </mxGeometry>
        </mxCell>
        <mxCell id="fPSkez0-Y5Z7DCAbJ3Fu-20" value="1" style="shape=partialRectangle;html=1;whiteSpace=wrap;connectable=0;strokeColor=inherit;overflow=hidden;fillColor=none;top=0;left=0;bottom=0;right=0;pointerEvents=1;fontSize=16;strokeWidth=2;" vertex="1" parent="fPSkez0-Y5Z7DCAbJ3Fu-18">
          <mxGeometry x="60" width="60" height="40" as="geometry">
            <mxRectangle width="60" height="40" as="alternateBounds" />
          </mxGeometry>
        </mxCell>
        <mxCell id="fPSkez0-Y5Z7DCAbJ3Fu-21" value="0" style="shape=partialRectangle;html=1;whiteSpace=wrap;connectable=0;strokeColor=inherit;overflow=hidden;fillColor=none;top=0;left=0;bottom=0;right=0;pointerEvents=1;fontSize=16;strokeWidth=2;" vertex="1" parent="fPSkez0-Y5Z7DCAbJ3Fu-18">
          <mxGeometry x="120" width="60" height="40" as="geometry">
            <mxRectangle width="60" height="40" as="alternateBounds" />
          </mxGeometry>
        </mxCell>
        <mxCell id="fPSkez0-Y5Z7DCAbJ3Fu-24" value="1" style="shape=partialRectangle;html=1;whiteSpace=wrap;connectable=0;strokeColor=inherit;overflow=hidden;fillColor=none;top=0;left=0;bottom=0;right=0;pointerEvents=1;fontSize=16;strokeWidth=2;" vertex="1" parent="fPSkez0-Y5Z7DCAbJ3Fu-18">
          <mxGeometry x="180" width="60" height="40" as="geometry">
            <mxRectangle width="60" height="40" as="alternateBounds" />
          </mxGeometry>
        </mxCell>
        <mxCell id="fPSkez0-Y5Z7DCAbJ3Fu-28" value="" style="rounded=1;whiteSpace=wrap;html=1;arcSize=4;strokeWidth=2;dashed=1;strokeColor=#0ABEFF;" vertex="1" parent="1">
          <mxGeometry x="210" y="410" width="320" height="190" as="geometry" />
        </mxCell>
        <mxCell id="fPSkez0-Y5Z7DCAbJ3Fu-30" value="" style="edgeStyle=segmentEdgeStyle;endArrow=classic;html=1;curved=0;rounded=0;endSize=8;startSize=8;entryX=0.667;entryY=1.007;entryDx=0;entryDy=0;entryPerimeter=0;" edge="1" parent="1" source="fPSkez0-Y5Z7DCAbJ3Fu-28" target="fPSkez0-Y5Z7DCAbJ3Fu-6">
          <mxGeometry width="50" height="50" relative="1" as="geometry">
            <mxPoint x="530" y="450" as="sourcePoint" />
            <mxPoint x="580" y="400" as="targetPoint" />
          </mxGeometry>
        </mxCell>
        <mxCell id="fPSkez0-Y5Z7DCAbJ3Fu-31" value="Input" style="verticalLabelPosition=bottom;shadow=0;dashed=0;align=center;html=1;verticalAlign=top;strokeWidth=1;shape=ellipse;perimeter=ellipsePerimeter;strokeColor=#000000;" vertex="1" parent="1">
          <mxGeometry x="230" y="530" width="15" height="15" as="geometry" />
        </mxCell>
        <mxCell id="fPSkez0-Y5Z7DCAbJ3Fu-32" value="Selector" style="verticalLabelPosition=bottom;shadow=0;dashed=0;align=center;html=1;verticalAlign=top;strokeWidth=1;shape=ellipse;perimeter=ellipsePerimeter;strokeColor=#000000;" vertex="1" parent="1">
          <mxGeometry x="230" y="450" width="15" height="15" as="geometry" />
        </mxCell>
        <mxCell id="fPSkez0-Y5Z7DCAbJ3Fu-41" value="" style="edgeStyle=orthogonalEdgeStyle;rounded=0;orthogonalLoop=1;jettySize=auto;html=1;strokeWidth=2;endArrow=none;endFill=0;" edge="1" parent="1" source="fPSkez0-Y5Z7DCAbJ3Fu-33" target="fPSkez0-Y5Z7DCAbJ3Fu-40">
          <mxGeometry relative="1" as="geometry" />
        </mxCell>
        <mxCell id="fPSkez0-Y5Z7DCAbJ3Fu-33" value="" style="verticalLabelPosition=bottom;shadow=0;dashed=0;align=center;html=1;verticalAlign=top;shape=mxgraph.electrical.logic_gates.logic_gate;operation=and;negating=1;negSize=0.15;strokeColor=#000000;strokeWidth=2;" vertex="1" parent="1">
          <mxGeometry x="300" y="475" width="100" height="60" as="geometry" />
        </mxCell>
        <mxCell id="fPSkez0-Y5Z7DCAbJ3Fu-35" value="" style="edgeStyle=segmentEdgeStyle;endArrow=none;html=1;curved=0;rounded=0;endSize=8;startSize=8;exitX=1;exitY=0.5;exitDx=0;exitDy=0;entryX=0;entryY=0.25;entryDx=0;entryDy=0;entryPerimeter=0;strokeWidth=2;endFill=0;" edge="1" parent="1" source="fPSkez0-Y5Z7DCAbJ3Fu-32" target="fPSkez0-Y5Z7DCAbJ3Fu-33">
          <mxGeometry width="50" height="50" relative="1" as="geometry">
            <mxPoint x="490" y="440" as="sourcePoint" />
            <mxPoint x="540" y="390" as="targetPoint" />
          </mxGeometry>
        </mxCell>
        <mxCell id="fPSkez0-Y5Z7DCAbJ3Fu-36" value="" style="edgeStyle=segmentEdgeStyle;endArrow=none;html=1;curved=0;rounded=0;endSize=8;startSize=8;exitX=1;exitY=0.5;exitDx=0;exitDy=0;entryX=0;entryY=0.75;entryDx=0;entryDy=0;entryPerimeter=0;strokeWidth=2;endFill=0;" edge="1" parent="1" source="fPSkez0-Y5Z7DCAbJ3Fu-31" target="fPSkez0-Y5Z7DCAbJ3Fu-33">
          <mxGeometry width="50" height="50" relative="1" as="geometry">
            <mxPoint x="240" y="550" as="sourcePoint" />
            <mxPoint x="295" y="582" as="targetPoint" />
            <Array as="points">
              <mxPoint x="245" y="540" />
              <mxPoint x="295" y="540" />
              <mxPoint x="295" y="520" />
            </Array>
          </mxGeometry>
        </mxCell>
        <mxCell id="fPSkez0-Y5Z7DCAbJ3Fu-40" value="&#xa;&#xa;A" style="shape=waypoint;sketch=0;fillStyle=solid;size=6;pointerEvents=1;points=[];fillColor=none;resizable=0;rotatable=0;perimeter=centerPerimeter;snapToPoint=1;strokeColor=#000000;strokeWidth=2;" vertex="1" parent="1">
          <mxGeometry x="420" y="565" width="20" height="20" as="geometry" />
        </mxCell>
      </root>
    </mxGraphModel>
  </diagram>
</mxfile>
